<svg xmlns="http://www.w3.org/2000/svg" width="52.462" height="32.142" viewBox="0 0 52.462 32.142">
  <g id="Group_12180" data-name="Group 12180" transform="translate(-3643 -9904)">
    <path id="Path_13601" data-name="Path 13601" d="M245.692,11.108a12.291,12.291,0,0,1,4.8-4.372,31.364,31.364,0,0,1,9.521-3.14A34.261,34.261,0,0,0,261.138,0a31.312,31.312,0,0,0-10.629,4.868,13.529,13.529,0,0,0-4.817,6.24" transform="translate(3423.793 9904)" fill="#4d4d4d"/>
    <path id="Path_13602" data-name="Path 13602" d="M243.882,48.476l1.738,1.692h.019c.388,0,.817.029,1.232.056s.863.059,1.267.059a3.832,3.832,0,0,0,1.145-.135c6.221-2.02,9.278-9.035,10.052-11.085a31.975,31.975,0,0,0-10.095,3.182c-3.006,1.676-4.807,3.771-5.358,6.231" transform="translate(3425.408 9869.148)" fill="#4d4d4d"/>
    <path id="Path_13603" data-name="Path 13603" d="M190.44,147.775c-.346-.024-.689-.044-1.013-.05l-.142.212a3.093,3.093,0,0,1-2.493,1.574c-.022,0-.046,0-.068-.005h-.011c-.023,0-.046.005-.068.005a3.093,3.093,0,0,1-2.493-1.574l-.142-.212c-.324.006-.667.027-1.013.05-.429.029-.875.059-1.292.059a4.856,4.856,0,0,1-1.043-.1,8.7,8.7,0,0,0,12.113,0,4.857,4.857,0,0,1-1.043.1c-.418,0-.863-.03-1.292-.059" transform="translate(3481.813 9772.199)" fill="#4d4d4d"/>
    <path id="Path_13604" data-name="Path 13604" d="M95.369,6.735a12.283,12.283,0,0,1,4.8,4.372,13.529,13.529,0,0,0-4.817-6.24A31.314,31.314,0,0,0,84.718,0a34.255,34.255,0,0,0,1.129,3.6,31.338,31.338,0,0,1,9.521,3.14" transform="translate(3567.415 9904)" fill="#4d4d4d"/>
    <path id="Path_13605" data-name="Path 13605" d="M98.938,50.229c.414-.028.843-.058,1.231-.058h.019l1.739-1.692c-.551-2.46-2.352-4.554-5.358-6.23a31.924,31.924,0,0,0-10.094-3.182c.773,2.049,3.831,9.064,10.052,11.084a3.786,3.786,0,0,0,1.144.135c.4,0,.844-.03,1.268-.058" transform="translate(3565.848 9869.144)" fill="#4d4d4d"/>
    <path id="Path_13606" data-name="Path 13606" d="M216.027,7.519a.361.361,0,0,0,.067-.014l.743,2.413a2.788,2.788,0,0,0-.622.421,25.427,25.427,0,0,1,1.654,2.878v.021a.03.03,0,0,1,.005-.011l.005.011v-.021a25.26,25.26,0,0,1,1.652-2.878,2.789,2.789,0,0,0-.622-.421l.743-2.413a.38.38,0,0,0,.067.014.446.446,0,1,0-.445-.445.435.435,0,0,0,.2.362l-.737,2.395a2.059,2.059,0,0,0-.775-.169V6.079a.438.438,0,0,0,.351-.426.444.444,0,0,0-.435-.444v0h-.01v0a.444.444,0,0,0-.436.444.439.439,0,0,0,.352.426V9.661a2.064,2.064,0,0,0-.776.169l-.736-2.395a.438.438,0,0,0,.2-.362.446.446,0,1,0-.446.445" transform="translate(3450.659 9899.355)" fill="#4d4d4d"/>
    <path id="Path_13607" data-name="Path 13607" d="M171.759,16.255a13.581,13.581,0,0,1,5.473,8.058.167.167,0,0,0,.005-.022.166.166,0,0,1,.005.022c.006-.03.014-.059.02-.088.007.03.015.059.02.088a.166.166,0,0,0,.005-.022.162.162,0,0,1,.005.022,13.589,13.589,0,0,1,5.474-8.058c.191-.146.385-.287.58-.425.679-1.411,1.114-2.395,1.114-2.395l-.027.007c-.286.083-2.686.879-5.295,4.768a25.351,25.351,0,0,0-1.663,2.9c-.057.117-.124.233-.189.352-.006-.013-.013-.024-.02-.037V21.4a.036.036,0,0,1-.005.01.05.05,0,0,0-.005-.01v.02l-.02.037c-.065-.118-.13-.234-.188-.352a25.5,25.5,0,0,0-1.663-2.9c-2.609-3.889-5.009-4.684-5.295-4.768l-.028-.007s.436.984,1.114,2.395c.195.138.389.279.581.425" transform="translate(3491.269 9892.014)" fill="#4d4d4d"/>
    <path id="Path_13608" data-name="Path 13608" d="M217.786,124.972l-2.258,2.26a2.785,2.785,0,0,0,2.225,1.43c.024,0,.049,0,.074-.006s.049.006.073.006a2.782,2.782,0,0,0,2.225-1.43l-2.258-2.26a.5.5,0,0,1-.04.032c-.013-.011-.027-.019-.041-.032" transform="translate(3450.706 9792.5)" fill="#4d4d4d"/>
    <path id="Path_13609" data-name="Path 13609" d="M469.379,185.712a.985.985,0,1,0,.985.985.986.986,0,0,0-.985-.985m0,1.908a.922.922,0,1,1,.922-.922.924.924,0,0,1-.922.922" transform="translate(3225.099 9738.308)" fill="#4d4d4d"/>
    <path id="Path_13610" data-name="Path 13610" d="M473.948,189.6a.14.14,0,1,1,.158-.175.317.317,0,0,0,.082-.221.358.358,0,0,0-.05-.186.264.264,0,0,0-.132-.117.681.681,0,0,0-.242-.033h-.527V190.1h.157v-.546h.182a.45.45,0,0,1,.088.005.226.226,0,0,1,.072.033.349.349,0,0,1,.08.082c.03.039.068.1.113.17l.157.256h.2l-.207-.335a.823.823,0,0,0-.13-.164m-.215-.189H473.4V189h.376a.28.28,0,0,1,.193.057.185.185,0,0,1,.061.144.2.2,0,0,1-.032.11.182.182,0,0,1-.092.074.494.494,0,0,1-.168.023" transform="translate(3220.777 9735.492)" fill="#4d4d4d"/>
    <path id="Path_13611" data-name="Path 13611" d="M8.032,278.505a.868.868,0,0,0,.211.617.735.735,0,0,0,1.062,0,.922.922,0,0,0,.21-.647,1.114,1.114,0,0,0-.09-.462.691.691,0,0,0-.262-.306.713.713,0,0,0-.387-.109.733.733,0,0,0-.525.21.935.935,0,0,0-.22.7m-.3,0a1.177,1.177,0,0,1,.29-.845.987.987,0,0,1,.749-.306,1.042,1.042,0,0,1,.541.143.944.944,0,0,1,.368.4,1.3,1.3,0,0,1,.126.582,1.275,1.275,0,0,1-.133.59.911.911,0,0,1-.377.394,1.077,1.077,0,0,1-.526.134,1.02,1.02,0,0,1-.548-.148.949.949,0,0,1-.366-.4,1.222,1.222,0,0,1-.124-.541m6.479.36.271-.024a.594.594,0,0,0,.089.267.487.487,0,0,0,.218.168.824.824,0,0,0,.333.064.8.8,0,0,0,.29-.049.405.405,0,0,0,.187-.134.312.312,0,0,0,.062-.186.28.28,0,0,0-.06-.178.435.435,0,0,0-.195-.128,3.875,3.875,0,0,0-.386-.106,1.979,1.979,0,0,1-.419-.135.588.588,0,0,1-.232-.2.5.5,0,0,1-.076-.27.55.55,0,0,1,.093-.307.579.579,0,0,1,.272-.217,1.043,1.043,0,0,1,.4-.074,1.085,1.085,0,0,1,.426.078.612.612,0,0,1,.283.228.662.662,0,0,1,.107.342l-.275.021a.444.444,0,0,0-.15-.31.582.582,0,0,0-.378-.105.608.608,0,0,0-.38.1.287.287,0,0,0-.119.23.247.247,0,0,0,.084.192,1.144,1.144,0,0,0,.433.155,2.88,2.88,0,0,1,.48.138.665.665,0,0,1,.28.221.54.54,0,0,1,.09.309.588.588,0,0,1-.1.326.655.655,0,0,1-.285.238.992.992,0,0,1-.417.085,1.239,1.239,0,0,1-.493-.086.691.691,0,0,1-.313-.258.728.728,0,0,1-.119-.39m6.241.7v-2.169h.432l.513,1.536c.047.143.082.25.1.321.025-.079.063-.195.116-.348l.519-1.509h.386v2.169h-.277v-1.815l-.63,1.815H21.36l-.627-1.846v1.846Zm6.671,0v-2.169h1.568v.256H27.414v.664h1.2v.255h-1.2v.738h1.332v.256Zm6.7,0v-1.913h-.714v-.256H34.83v.256h-.718v1.913Zm5.48-2.169h.287v2.169h-.287Zm6.472,1.408.287.073a.971.971,0,0,1-.325.539.9.9,0,0,1-.574.185,1.031,1.031,0,0,1-.57-.142.893.893,0,0,1-.334-.413,1.481,1.481,0,0,1-.115-.582,1.276,1.276,0,0,1,.129-.591.886.886,0,0,1,.369-.383,1.073,1.073,0,0,1,.526-.131.888.888,0,0,1,.548.166.858.858,0,0,1,.309.466l-.282.067a.671.671,0,0,0-.219-.345.582.582,0,0,0-.361-.108.7.7,0,0,0-.418.12.631.631,0,0,0-.236.322,1.289,1.289,0,0,0-.068.416,1.33,1.33,0,0,0,.08.483.6.6,0,0,0,.251.309.7.7,0,0,0,.369.1.619.619,0,0,0,.408-.139.713.713,0,0,0,.226-.413m4.675.064.271-.024a.6.6,0,0,0,.09.267.486.486,0,0,0,.218.168.824.824,0,0,0,.333.064.8.8,0,0,0,.29-.049.405.405,0,0,0,.187-.134.312.312,0,0,0,.062-.186.281.281,0,0,0-.06-.178.435.435,0,0,0-.195-.128,3.88,3.88,0,0,0-.386-.106,1.979,1.979,0,0,1-.419-.135.589.589,0,0,1-.232-.2.5.5,0,0,1-.076-.27.549.549,0,0,1,.093-.307.579.579,0,0,1,.272-.217,1.044,1.044,0,0,1,.4-.074,1.085,1.085,0,0,1,.426.078.611.611,0,0,1,.283.228.663.663,0,0,1,.107.342l-.275.021a.443.443,0,0,0-.15-.31.582.582,0,0,0-.378-.105.608.608,0,0,0-.38.1.287.287,0,0,0-.119.23.247.247,0,0,0,.084.192,1.144,1.144,0,0,0,.433.155,2.878,2.878,0,0,1,.48.138.663.663,0,0,1,.28.221.54.54,0,0,1,.09.309.589.589,0,0,1-.1.326.657.657,0,0,1-.285.238.993.993,0,0,1-.418.085,1.24,1.24,0,0,1-.493-.086.69.69,0,0,1-.313-.258.73.73,0,0,1-.119-.39m-47.4-.064.287.073a.972.972,0,0,1-.325.539.9.9,0,0,1-.574.185,1.031,1.031,0,0,1-.57-.142.892.892,0,0,1-.334-.413,1.479,1.479,0,0,1-.115-.582,1.276,1.276,0,0,1,.129-.591.885.885,0,0,1,.369-.383,1.073,1.073,0,0,1,.526-.131.888.888,0,0,1,.547.166.857.857,0,0,1,.309.466l-.282.067A.671.671,0,0,0,2.8,277.7a.582.582,0,0,0-.361-.108.7.7,0,0,0-.418.12.632.632,0,0,0-.236.322,1.289,1.289,0,0,0-.068.416,1.332,1.332,0,0,0,.08.483.6.6,0,0,0,.251.309.7.7,0,0,0,.369.1.619.619,0,0,0,.408-.139.712.712,0,0,0,.226-.413" transform="translate(3641.732 9656.548)" fill="#4d4d4d" fill-rule="evenodd"/>
    <path id="Path_13612" data-name="Path 13612" d="M3.3,196.719,0,203.73H1.9l.383-.815H5.564l.383.815H7.835l-3.3-7.011ZM4.762,201.2H3.09l.836-1.775Z" transform="translate(3643 9728.487)" fill="#4d4d4d"/>
    <path id="Path_13613" data-name="Path 13613" d="M90.764,196.718H89.053v7.011h4.565v-1.711H90.764Z" transform="translate(3563.547 9728.488)" fill="#4d4d4d"/>
    <path id="Path_13614" data-name="Path 13614" d="M152.95,198.9a2.174,2.174,0,0,0-2.18-2.18h-3v7.011h3.2a2.184,2.184,0,0,0,1.627-3.637,2.112,2.112,0,0,0,.35-1.193m-3.465,2.18h1.489a.469.469,0,0,1,0,.939h-1.489Zm1.617-1.849a.448.448,0,0,1-.332.138h-1.285v-.939h1.285a.469.469,0,0,1,.332.8" transform="translate(3511.156 9728.488)" fill="#4d4d4d"/>
    <path id="Path_13615" data-name="Path 13615" d="M217.354,196.719l-3.3,7.011h1.9l.383-.815h3.277l.383.815h1.888l-3.3-7.011Zm1.464,4.484h-1.672l.836-1.775Z" transform="translate(3452.018 9728.487)" fill="#4d4d4d"/>
    <path id="Path_13616" data-name="Path 13616" d="M307.133,197.975l-.008,0-1.579-.374c-.308-.133-.457-.3-.457-.509a.464.464,0,0,1,.21-.377,1.087,1.087,0,0,1,.668-.174,1.433,1.433,0,0,1,1.11.476l.09.1,1.329-1.065-.1-.112a3.223,3.223,0,0,0-2.5-1.108,2.622,2.622,0,0,0-1.752.646,2.185,2.185,0,0,0-.763,1.739,1.822,1.822,0,0,0,.475,1.214,2.636,2.636,0,0,0,1.231.781h0l1.563.381a.428.428,0,0,1,.273.36.456.456,0,0,1-.24.423,1.405,1.405,0,0,1-.719.164,1.72,1.72,0,0,1-1.372-.785l-.082-.105-1.4.954.08.117a3.214,3.214,0,0,0,2.776,1.53,2.694,2.694,0,0,0,1.975-.689,2.213,2.213,0,0,0,.694-1.613,2.017,2.017,0,0,0-1.5-1.968" transform="translate(3372.564 9730.176)" fill="#4d4d4d"/>
    <path id="Path_13617" data-name="Path 13617" d="M370.737,203.729h4.769v-1.711h-3.058v-.939h2.446v-1.711h-2.446v-.939h3.058v-1.711h-4.769Z" transform="translate(3312.228 9728.488)" fill="#4d4d4d"/>
    <path id="Path_13618" data-name="Path 13618" d="M433.059,196.718h-1.711v7.011h4.565v-1.711h-2.854Z" transform="translate(3258.152 9728.488)" fill="#4d4d4d"/>
    <rect id="Rectangle_980" data-name="Rectangle 980" width="52.462" height="32.142" transform="translate(3643 9904)" fill="none"/>
  </g>
</svg>
