<svg width="70" viewBox="0 0 75 27" fill="none" xmlns="http://www.w3.org/2000/svg">
<g clip-path="url(#clip0_234_6)">
<path d="M68.3333 0H6.66667C2.98477 0 0 2.95992 0 6.61116V19.4202C0 23.0715 2.98477 26.0314 6.66667 26.0314H68.3333C72.0152 26.0314 75 23.0715 75 19.4202V6.61116C75 2.95992 72.0152 0 68.3333 0Z" fill="#E4DAFC"></path>
<path d="M31.0751 18.0359C30.2521 18.0359 29.5617 17.8648 29.0041 17.5224C28.4333 17.1933 27.9952 16.6667 27.7695 16.0348L28.9908 15.6135C29.1103 15.9559 29.3493 16.2454 29.6678 16.4167C30.0264 16.6405 30.5043 16.7457 31.0751 16.7457C31.6458 16.7457 32.0839 16.6273 32.4292 16.364C32.7211 16.1402 32.854 15.8769 32.854 15.5083V15.4951C32.854 15.3634 32.8274 15.2318 32.7743 15.1264C32.7344 15.0475 32.6283 14.9685 32.4954 14.8896C32.283 14.771 32.0442 14.6658 31.8053 14.5999C31.5397 14.5077 31.1681 14.4156 30.7034 14.3102C30.3316 14.2313 30.0397 14.1655 29.8273 14.0996C29.5883 14.0338 29.3493 13.9548 29.1103 13.8627C28.8581 13.7705 28.6324 13.6389 28.4333 13.4677L28.4067 13.4414C28.2342 13.2703 28.0882 13.086 27.9952 12.8621C27.8758 12.5989 27.8227 12.3224 27.836 12.0459C27.836 11.3087 28.1412 10.69 28.7254 10.2687C29.2563 9.88693 29.9467 9.68945 30.7697 9.68945C31.6326 9.68945 32.3628 9.88692 32.9335 10.295C33.5177 10.7031 33.9027 11.2955 34.1018 12.0459L32.8407 12.3487C32.7344 11.9011 32.522 11.572 32.1902 11.335C31.845 11.0981 31.3805 10.9796 30.783 10.9796C30.2388 10.9796 29.8007 11.0849 29.5086 11.3087C29.2563 11.493 29.1502 11.73 29.1502 12.0723C29.1502 12.1776 29.1635 12.2566 29.2033 12.3356C29.2298 12.3882 29.2696 12.454 29.3095 12.4935C29.3892 12.5594 29.4953 12.612 29.5883 12.6515L29.6149 12.6647C29.8007 12.7437 29.9865 12.8095 30.1723 12.849C30.3582 12.9016 30.637 12.9675 30.9821 13.0465C31.4999 13.1649 31.8981 13.2571 32.2035 13.3624C32.522 13.4677 32.8274 13.5994 33.1195 13.7574C33.4779 13.9548 33.7434 14.205 33.916 14.5077V14.5209C34.0752 14.8237 34.1549 15.1659 34.1417 15.5215C34.1417 16.2849 33.823 16.9432 33.2124 17.3908C32.6549 17.8252 31.938 18.0359 31.0751 18.0359Z" fill="black"></path>
<path d="M17.8127 15.7852L18.7551 16.72L18.649 16.8252C18.0516 17.4176 17.3082 17.8126 16.4851 17.9706C16.2063 18.0233 15.9408 18.0494 15.6621 18.0494C15.1045 18.0494 14.5602 17.9442 14.0425 17.7336C13.2593 17.4176 12.6088 16.8779 12.1442 16.1933C11.6795 15.5087 11.4272 14.6925 11.4272 13.8631C11.4272 13.0338 11.6795 12.2307 12.1442 11.533C12.6088 10.8484 13.2726 10.3087 14.0425 9.99271C14.8123 9.67677 15.6621 9.59777 16.4851 9.75575C17.3082 9.91373 18.0516 10.3087 18.649 10.9011L18.7551 11.0064L17.8127 11.9411L17.7064 11.8358C17.2949 11.4277 16.7904 11.1644 16.2196 11.0459C15.6621 10.9406 15.0779 10.9932 14.547 11.2039C14.0159 11.4277 13.5645 11.7831 13.246 12.257C12.9273 12.731 12.7548 13.2839 12.7548 13.85C12.7548 14.416 12.9273 14.969 13.246 15.4428C13.5645 15.9168 14.0159 16.2855 14.547 16.4961C15.0779 16.72 15.6621 16.7725 16.2196 16.6541C16.7772 16.5355 17.2949 16.2723 17.7064 15.8641L17.8127 15.7852Z" fill="black"></path>
<path d="M63.5593 9.82095V14.9552C63.5593 15.3106 63.4928 15.6661 63.3867 15.9952C63.2539 16.3769 63.0415 16.7325 62.7626 17.0352C62.6831 17.1142 62.6034 17.2063 62.5237 17.2721C62.2184 17.5486 61.8599 17.7593 61.475 17.8909C61.1432 18.0094 60.7979 18.0621 60.4263 18.0621C60.0679 18.0621 59.7093 17.9963 59.3775 17.8909C58.9926 17.7593 58.6341 17.5486 58.3288 17.2721C58.2491 17.2063 58.1694 17.1274 58.0899 17.0352C58.0367 16.9695 57.9836 16.9168 57.9437 16.8509C57.8908 16.9168 57.8509 16.9695 57.7978 17.0352C57.7181 17.1142 57.6385 17.2063 57.5588 17.2721C57.2403 17.5486 56.895 17.7593 56.5101 17.8909C56.1781 18.0094 55.833 18.0621 55.4614 18.0621C55.1028 18.0621 54.7445 17.9963 54.4125 17.8909C54.0276 17.7593 53.6692 17.5486 53.3638 17.2721C53.2842 17.2063 53.2045 17.1274 53.1248 17.0352C52.8462 16.7325 52.6338 16.3769 52.5009 15.9952C52.3815 15.6661 52.3284 15.3238 52.3284 14.9552V9.75513H53.6293V14.9552C53.6293 15.2711 53.709 15.5871 53.8683 15.8636C54.0276 16.1399 54.2665 16.3637 54.5321 16.535C55.0896 16.8509 55.8065 16.8509 56.3641 16.535C56.6428 16.3769 56.8685 16.1399 57.041 15.8636C57.2004 15.5871 57.28 15.2711 57.28 14.9552V9.75513H58.2624H58.5942V14.9552C58.5942 15.2711 58.6739 15.5871 58.8332 15.8636C58.9926 16.1399 59.2314 16.3637 59.4969 16.535C60.0546 16.8509 60.7713 16.8509 61.329 16.535C61.6078 16.3769 61.8335 16.1399 61.9928 15.8636C62.152 15.5871 62.2317 15.2711 62.2317 14.9552V9.82095H63.5593Z" fill="black"></path>
<path d="M41.735 12.783V17.983H40.434V12.783C40.434 12.467 40.3543 12.1511 40.195 11.8746C40.0356 11.5982 39.7968 11.3744 39.518 11.2164C38.9603 10.9004 38.2436 10.9004 37.6859 11.2164C37.4071 11.3744 37.1816 11.6113 37.0089 11.8746C36.8762 12.0984 36.7965 12.3354 36.7699 12.5987V17.983H35.4424V7.34595H36.7699V10.2553C37.0089 10.0842 37.2744 9.95256 37.54 9.84724C38.2037 9.61028 38.9603 9.61028 39.6241 9.84724C40.0092 9.97889 40.3676 10.1895 40.673 10.466C40.7525 10.5318 40.8322 10.6108 40.9118 10.703C41.1906 11.0189 41.403 11.3612 41.5358 11.743C41.6685 12.0721 41.735 12.4275 41.735 12.783Z" fill="black"></path>
<path d="M49.739 14.6918L49.7124 14.7577C49.6859 14.8498 49.646 14.942 49.5929 15.0472C49.4336 15.3896 49.2079 15.7055 48.9291 15.9556C48.6903 16.1794 48.4115 16.3505 48.1061 16.4823C47.8008 16.6138 47.4689 16.6929 47.1503 16.7061C46.7652 16.7323 46.3936 16.6797 46.0352 16.5611C45.9422 16.5348 45.8492 16.4954 45.7431 16.4427C45.398 16.2848 45.0793 16.061 44.8271 15.7845C44.7607 15.7055 44.6811 15.6266 44.6147 15.5343L51.0798 12.7961L51.04 12.6644C50.9868 12.4933 50.9337 12.3353 50.8674 12.1773C50.801 12.0194 50.7213 11.8614 50.6284 11.7034C50.5222 11.5323 50.4293 11.3875 50.3363 11.2558C50.0974 10.953 49.8318 10.6897 49.5133 10.4528C49.2876 10.2816 49.0354 10.1368 48.7964 10.0183C48.6371 9.93933 48.4779 9.87351 48.3052 9.82086C48.0398 9.7287 47.761 9.67604 47.4822 9.63655C47.0972 9.59706 46.7123 9.59706 46.3404 9.64972C45.9821 9.70237 45.6368 9.80769 45.3183 9.93933C44.9863 10.071 44.6811 10.2553 44.389 10.4791C44.0838 10.716 43.8182 10.9793 43.5793 11.2821C43.4067 11.5059 43.2606 11.7561 43.1412 11.993C43.0615 12.1642 42.9952 12.3222 42.9421 12.4801C42.8491 12.7434 42.7959 13.0199 42.7562 13.2963C42.7031 13.6781 42.7164 14.0599 42.7695 14.4285C42.8225 14.7839 42.9288 15.1263 43.0615 15.4421C43.1943 15.7713 43.3802 16.074 43.5925 16.3637C43.8315 16.6665 44.0969 16.9299 44.4156 17.1667C44.6413 17.338 44.8935 17.4827 45.1325 17.6011C45.2917 17.6802 45.4643 17.746 45.6237 17.7987C45.8891 17.8908 46.1679 17.9435 46.4467 17.983C46.6193 18.0094 46.7918 18.0094 46.9644 18.0094C47.1768 18.0094 47.3892 17.9962 47.5884 17.9567C47.9468 17.904 48.2919 17.8118 48.6106 17.667C48.9424 17.5222 49.2478 17.3511 49.5399 17.1273C49.8451 16.8903 50.1106 16.627 50.3496 16.3242C50.5222 16.1004 50.6683 15.8504 50.7877 15.6134C50.8674 15.4421 50.9337 15.2842 50.9868 15.1263C51.0798 14.8629 51.1328 14.5864 51.1726 14.3101L51.1992 14.0467L49.739 14.6918ZM44.0969 14.3233C44.0838 14.2047 44.0705 14.1125 44.0572 14.0072C44.0306 13.6255 44.0838 13.2569 44.2032 12.9014C44.2297 12.8092 44.2696 12.7171 44.3226 12.6118C44.482 12.2695 44.7077 11.9667 44.9863 11.7034C45.2253 11.4796 45.5041 11.3085 45.8095 11.1768C46.1148 11.0452 46.4467 10.9662 46.7652 10.953C46.8317 10.953 46.8981 10.9399 46.9511 10.9399C47.2698 10.9399 47.5751 10.9925 47.8804 11.0978C47.9734 11.1242 48.0662 11.1637 48.1725 11.2163C48.5176 11.3743 48.823 11.5981 49.0885 11.8745C49.1548 11.9535 49.2212 12.0457 49.2876 12.1378L44.0969 14.3233Z" fill="black"></path>
<path d="M27.0916 13.876C27.0916 11.5459 25.1931 9.66333 22.87 9.66333C20.5469 9.66333 18.6484 11.559 18.6484 13.876C18.6484 16.2063 20.5469 18.0888 22.87 18.0888C23.9851 18.0888 24.994 17.6543 25.7508 16.9434V17.9834H27.0783V14.2052C27.0916 14.0998 27.0916 13.9945 27.0916 13.876ZM22.8833 16.7591C21.9938 16.7591 21.1974 16.351 20.6663 15.706C20.6265 15.6664 20.5999 15.6137 20.5602 15.5742C20.5336 15.5348 20.507 15.4953 20.4805 15.4558C20.4672 15.4426 20.4672 15.4294 20.4539 15.4294C20.1485 14.9818 19.976 14.4422 19.976 13.8497C19.976 12.2699 21.2769 10.9798 22.8567 10.9798C24.4099 10.9798 25.671 12.2041 25.7375 13.7312V13.8892C25.7375 13.9814 25.7375 14.0735 25.7242 14.1656C25.7242 14.192 25.7242 14.2052 25.7109 14.2315C25.6976 14.2972 25.6976 14.3763 25.671 14.4422C25.671 14.4685 25.6578 14.5079 25.6578 14.5342C25.6445 14.5738 25.6445 14.6001 25.6312 14.6396C25.6179 14.6923 25.6046 14.7449 25.5782 14.7976C25.5649 14.8503 25.5384 14.903 25.5118 14.9687C25.4852 15.0214 25.4719 15.0741 25.4454 15.1268C25.4454 15.1268 25.4454 15.1268 25.4454 15.1398C25.4188 15.1925 25.3922 15.2452 25.3658 15.2979C25.3525 15.3242 25.3392 15.3504 25.3127 15.3767C25.2994 15.4031 25.2728 15.4294 25.2595 15.4558C25.2595 15.469 25.2462 15.4821 25.233 15.4953C24.7417 16.2588 23.8656 16.7591 22.8833 16.7591Z" fill="black"></path>
</g>
<defs>
<clipPath id="clip0_234_6">
<rect width="75" height="26.0314" rx="4" fill="white"></rect>
</clipPath>
</defs>
</svg>