<svg id="Group_11688" data-name="Group 11688" xmlns="http://www.w3.org/2000/svg" width="30.022" height="18.479" viewBox="0 0 30.022 18.479">
  <path id="Path_7143" data-name="Path 7143" d="M349.743,1840.543c2.572,2.359,3.533,3.108,6.108,5.469l-.947,1.036c-2.582-2.368-3.548-3.12-6.123-5.48a7.323,7.323,0,0,1-5.691,1.8,7.164,7.164,0,0,1-4.953-2.677,7.416,7.416,0,1,1,11.607-.147m.141-4.536a6.016,6.016,0,1,0-6,6,6.013,6.013,0,0,0,6-6" transform="translate(-325.828 -1828.57)" fill="#fff"/>
  <line id="Line_32" data-name="Line 32" x2="7.086" transform="translate(0 1.166)" fill="none" stroke="#fff" stroke-miterlimit="10" stroke-width="1.5"/>
  <line id="Line_33" data-name="Line 33" x2="7.086" transform="translate(0 8.683)" fill="none" stroke="#fff" stroke-miterlimit="10" stroke-width="1.5"/>
  <line id="Line_34" data-name="Line 34" x2="7.086" transform="translate(0 16.2)" fill="none" stroke="#fff" stroke-miterlimit="10" stroke-width="1.5"/>
</svg>
